<svg xmlns="http://www.w3.org/2000/svg" width="800" height="170" viewBox="0 0 800 170">
  <defs><radialGradient id="glow" cx="50%" cy="50%" r="50%">
    <stop offset="0%" stop-color="#ffffff" stop-opacity="0.9"/>
    <stop offset="40%" stop-color="#e6edf3" stop-opacity="0.3"/>
    <stop offset="100%" stop-color="#e6edf3" stop-opacity="0"/>
  </radialGradient></defs>
  <line x1="70" y1="120" x2="165" y2="84" stroke="#6e7681" stroke-width="0.8" stroke-dasharray="3 4" opacity="0.8"/><line x1="165" y1="84" x2="262" y2="102" stroke="#6e7681" stroke-width="0.8" stroke-dasharray="3 4" opacity="0.8"/><line x1="262" y1="102" x2="360" y2="62" stroke="#6e7681" stroke-width="0.8" stroke-dasharray="3 4" opacity="0.8"/><line x1="360" y1="62" x2="470" y2="78" stroke="#6e7681" stroke-width="0.8" stroke-dasharray="3 4" opacity="0.8"/><line x1="470" y1="78" x2="565" y2="44" stroke="#6e7681" stroke-width="0.8" stroke-dasharray="3 4" opacity="0.8"/><circle cx="70" cy="120" r="2.2" fill="#e6edf3"/><circle cx="165" cy="84" r="2.2" fill="#e6edf3"/><circle cx="262" cy="102" r="2.2" fill="#e6edf3"/><circle cx="360" cy="62" r="2.2" fill="#e6edf3"/><circle cx="470" cy="78" r="2.2" fill="#e6edf3"/><circle cx="565" cy="44" r="2.2" fill="#e6edf3"/>
  <circle cx="640" cy="52" r="30" fill="url(#glow)"/>
  <circle cx="640" cy="52" r="2.8" fill="#ffffff"/>
  <line x1="616" y1="52" x2="664" y2="52" stroke="#e6edf3" stroke-width="0.7" opacity="0.7"/>
  <line x1="640" y1="28" x2="640" y2="76" stroke="#e6edf3" stroke-width="0.7" opacity="0.7"/>
  <g><circle cx="262.6" cy="34.2" r="1.0" fill="#9aa4b2" opacity="0.26"/><circle cx="464.6" cy="135.9" r="0.6" fill="#e6edf3" opacity="0.46"/><circle cx="64.5" cy="26.2" r="1.0" fill="#e6edf3" opacity="0.27"/><circle cx="184.1" cy="98.1" r="0.8" fill="#c9d1d9" opacity="0.23"/><circle cx="182.4" cy="88.6" r="0.8" fill="#e6edf3" opacity="0.29"/><circle cx="101.9" cy="55.3" r="1.0" fill="#9aa4b2" opacity="0.54"/><circle cx="156.5" cy="27.1" r="1.0" fill="#c9d1d9" opacity="0.32"/><circle cx="540.7" cy="71.3" r="1.0" fill="#e6edf3" opacity="0.75"/><circle cx="292.0" cy="47.3" r="0.6" fill="#e6edf3" opacity="0.25"/><circle cx="244.2" cy="80.3" r="0.8" fill="#e6edf3" opacity="0.37"/><circle cx="774.5" cy="29.8" r="0.8" fill="#e6edf3" opacity="0.29"/><circle cx="391.4" cy="19.3" r="1.0" fill="#c9d1d9" opacity="0.67"/><circle cx="648.3" cy="59.6" r="0.8" fill="#e6edf3" opacity="0.55"/><circle cx="365.8" cy="126.6" r="1.0" fill="#9aa4b2" opacity="0.24"/><circle cx="580.3" cy="55.5" r="0.8" fill="#c9d1d9" opacity="0.37"/><circle cx="310.9" cy="103.6" r="0.8" fill="#e6edf3" opacity="0.41"/><circle cx="486.5" cy="80.2" r="0.8" fill="#e6edf3" opacity="0.28"/><circle cx="203.1" cy="66.4" r="0.8" fill="#9aa4b2" opacity="0.44"/><circle cx="226.7" cy="32.3" r="1.0" fill="#e6edf3" opacity="0.37"/><circle cx="333.9" cy="62.1" r="0.6" fill="#c9d1d9" opacity="0.25"/><circle cx="128.0" cy="102.2" r="1.0" fill="#e6edf3" opacity="0.31"/><circle cx="229.9" cy="33.5" r="1.0" fill="#e6edf3" opacity="0.54"/><circle cx="753.4" cy="106.5" r="1.0" fill="#e6edf3" opacity="0.59"/><circle cx="587.0" cy="75.2" r="1.0" fill="#c9d1d9" opacity="0.68"/><circle cx="316.1" cy="67.5" r="1.0" fill="#e6edf3" opacity="0.44"/><circle cx="158.7" cy="145.9" r="0.6" fill="#e6edf3" opacity="0.4"/><circle cx="51.0" cy="14.0" r="0.6" fill="#e6edf3" opacity="0.77"/><circle cx="488.7" cy="23.4" r="0.8" fill="#e6edf3" opacity="0.29"/><circle cx="206.8" cy="60.6" r="0.6" fill="#e6edf3" opacity="0.27"/><circle cx="390.7" cy="145.0" r="0.8" fill="#e6edf3" opacity="0.25"/><circle cx="89.7" cy="59.9" r="1.0" fill="#e6edf3" opacity="0.3"/><circle cx="28.0" cy="141.4" r="0.6" fill="#e6edf3" opacity="0.61"/><circle cx="723.0" cy="115.6" r="1.0" fill="#e6edf3" opacity="0.72"/><circle cx="553.0" cy="49.0" r="0.6" fill="#e6edf3" opacity="0.41"/><circle cx="183.8" cy="86.6" r="1.0" fill="#e6edf3" opacity="0.33"/><circle cx="643.0" cy="146.0" r="0.8" fill="#c9d1d9" opacity="0.64"/><circle cx="186.9" cy="83.4" r="0.6" fill="#e6edf3" opacity="0.79"/><circle cx="626.3" cy="77.3" r="1.0" fill="#e6edf3" opacity="0.77"/><circle cx="358.8" cy="139.6" r="0.8" fill="#c9d1d9" opacity="0.25"/><circle cx="89.7" cy="77.0" r="0.8" fill="#e6edf3" opacity="0.57"/><circle cx="712.2" cy="126.6" r="1.0" fill="#e6edf3" opacity="0.41"/><circle cx="511.6" cy="125.8" r="0.8" fill="#e6edf3" opacity="0.67"/><circle cx="595.1" cy="78.1" r="1.0" fill="#e6edf3" opacity="0.4"/><circle cx="634.6" cy="144.2" r="0.8" fill="#e6edf3" opacity="0.65"/><circle cx="76.2" cy="35.3" r="1.0" fill="#9aa4b2" opacity="0.74"/><circle cx="639.1" cy="33.6" r="1.0" fill="#c9d1d9" opacity="0.76"/><circle cx="131.6" cy="87.5" r="1.0" fill="#e6edf3" opacity="0.59"/><circle cx="420.7" cy="139.1" r="0.6" fill="#e6edf3" opacity="0.7"/><circle cx="174.6" cy="47.7" r="0.6" fill="#e6edf3" opacity="0.66"/><circle cx="264.3" cy="86.9" r="1.0" fill="#9aa4b2" opacity="0.41"/><circle cx="367.4" cy="92.2" r="1.0" fill="#9aa4b2" opacity="0.28"/><circle cx="128.4" cy="82.4" r="1.0" fill="#c9d1d9" opacity="0.2"/><circle cx="633.4" cy="37.1" r="1.0" fill="#e6edf3" opacity="0.27"/><circle cx="58.2" cy="105.4" r="0.8" fill="#e6edf3" opacity="0.67"/><circle cx="92.8" cy="89.1" r="0.8" fill="#e6edf3" opacity="0.23"/><circle cx="86.2" cy="74.6" r="0.6" fill="#e6edf3" opacity="0.47"/><circle cx="487.8" cy="81.7" r="1.0" fill="#e6edf3" opacity="0.37"/><circle cx="406.4" cy="122.2" r="0.6" fill="#e6edf3" opacity="0.62"/><circle cx="693.7" cy="140.3" r="1.0" fill="#e6edf3" opacity="0.74"/><circle cx="168.0" cy="74.0" r="0.8" fill="#e6edf3" opacity="0.47"/><circle cx="66.6" cy="46.2" r="1.0" fill="#e6edf3" opacity="0.38"/><circle cx="105.4" cy="118.1" r="0.8" fill="#c9d1d9" opacity="0.29"/><circle cx="698.6" cy="143.7" r="0.6" fill="#e6edf3" opacity="0.44"/><circle cx="390.1" cy="146.6" r="0.8" fill="#9aa4b2" opacity="0.8"/><circle cx="325.0" cy="70.5" r="0.6" fill="#e6edf3" opacity="0.63"/><circle cx="25.2" cy="88.2" r="0.6" fill="#e6edf3" opacity="0.43"/><circle cx="413.6" cy="53.6" r="0.6" fill="#9aa4b2" opacity="0.78"/><circle cx="91.7" cy="49.6" r="0.6" fill="#e6edf3" opacity="0.36"/><circle cx="111.1" cy="70.6" r="0.8" fill="#c9d1d9" opacity="0.44"/><circle cx="428.5" cy="83.0" r="0.8" fill="#e6edf3" opacity="0.25"/><circle cx="54.9" cy="106.2" r="0.6" fill="#e6edf3" opacity="0.36"/><circle cx="23.1" cy="25.9" r="1.0" fill="#e6edf3" opacity="0.71"/><circle cx="62.0" cy="129.6" r="0.8" fill="#e6edf3" opacity="0.8"/><circle cx="335.9" cy="136.7" r="1.0" fill="#9aa4b2" opacity="0.34"/><circle cx="95.4" cy="35.6" r="0.6" fill="#e6edf3" opacity="0.76"/><circle cx="500.4" cy="85.2" r="0.8" fill="#e6edf3" opacity="0.5"/><circle cx="148.8" cy="60.5" r="0.8" fill="#e6edf3" opacity="0.22"/><circle cx="24.4" cy="81.8" r="0.6" fill="#c9d1d9" opacity="0.76"/><circle cx="92.9" cy="123.7" r="0.8" fill="#e6edf3" opacity="0.53"/><circle cx="703.2" cy="144.0" r="0.6" fill="#e6edf3" opacity="0.79"/></g>
  <line x1="610" y1="150" x2="670" y2="150" stroke="#e6edf3" stroke-width="1.2"/>
</svg>